<svg id="graduate-cap" xmlns="http://www.w3.org/2000/svg" width="48.051" height="29.679" viewBox="0 0 48.051 29.679">
  <g id="Group_9" data-name="Group 9" transform="translate(0 0)">
    <path id="Path_86" data-name="Path 86" d="M48.051,27.619a1.8,1.8,0,0,0-1.022-1.612V14.886a.342.342,0,0,0-.006-.641L24.078,6.152a1.359,1.359,0,0,0-.909,0L.227,14.246a.342.342,0,0,0-.009.641L23.128,23.8a1.381,1.381,0,0,0,.991,0L45.447,15.5V26.005a1.8,1.8,0,0,0,.082,3.277,14.945,14.945,0,0,0-1.1,4.66,1.811,1.811,0,0,0,3.622,0,14.988,14.988,0,0,0-1.1-4.66A1.809,1.809,0,0,0,48.051,27.619Z" transform="translate(0 -6.073)" fill="#67b445"/>
    <path id="Path_87" data-name="Path 87" d="M4.888,14.87c0,2.565,0,5.584,0,6.063,0,4.776,7.189,8.665,16.228,8.908,9.038-.243,16.227-4.127,16.227-8.908,0-.476,0-3.5,0-6.063L21.611,21a1.365,1.365,0,0,1-.991,0Z" transform="translate(2.505 -1.566)" fill="#67b445"/>
  </g>
</svg>
