<svg id="multiple-users-silhouette" xmlns="http://www.w3.org/2000/svg" width="37.321" height="31.407" viewBox="0 0 37.321 31.407">
  <path id="Path_88" data-name="Path 88" d="M22.521,11.739a6.782,6.782,0,0,1,3.156,5.038,5.471,5.471,0,1,0-3.156-5.038ZM18.936,22.946a5.473,5.473,0,1,0-5.474-5.473A5.473,5.473,0,0,0,18.936,22.946Zm2.322.373H16.613A7.016,7.016,0,0,0,9.6,30.327v5.68l.014.089.391.122a31.9,31.9,0,0,0,9.529,1.537,19.562,19.562,0,0,0,8.32-1.562l.366-.185h.039V30.327A7.014,7.014,0,0,0,21.257,23.319Zm9.056-5.651H25.7a6.746,6.746,0,0,1-2.082,4.7,8.327,8.327,0,0,1,5.948,7.969v1.75a18.859,18.859,0,0,0,7.345-1.543l.366-.185h.039V24.676A7.016,7.016,0,0,0,30.313,17.668ZM9.331,17.3a5.437,5.437,0,0,0,2.911-.845,6.774,6.774,0,0,1,2.546-4.32c.006-.1.015-.2.015-.307A5.473,5.473,0,1,0,9.331,17.3Zm4.916,5.071a6.75,6.75,0,0,1-2.081-4.672c-.171-.013-.34-.026-.514-.026H7.008A7.016,7.016,0,0,0,0,24.676v5.681l.014.088.391.123A32.859,32.859,0,0,0,8.3,32.051V30.336A8.329,8.329,0,0,1,14.247,22.367Z" transform="translate(0 -6.348)" fill="#67b445"/>
</svg>
