<svg xmlns="http://www.w3.org/2000/svg" width="35.944" height="38.001" viewBox="0 0 35.944 38.001">
  <g id="university-campus" transform="translate(-10.828)">
    <g id="Group_11" data-name="Group 11" transform="translate(10.828)">
      <path id="Path_102" data-name="Path 102" d="M45.6,34.2V17.03a1.623,1.623,0,0,0-1.623-1.623H36.274V10.735a1.217,1.217,0,0,0-.624-1.063L29.393,6.183c-.034-.019-.07-.036-.106-.052V4.14h3.369a.487.487,0,0,0,.487-.487V1.194a.487.487,0,0,0-.487-.487H29.287V.487a.487.487,0,1,0-.974,0V6.131c-.036.016-.071.033-.106.052L21.95,9.672a1.217,1.217,0,0,0-.624,1.063v4.672H13.62A1.623,1.623,0,0,0,12,17.03V34.2a1.988,1.988,0,0,0,.819,3.8H44.784a1.988,1.988,0,0,0,.819-3.8ZM39.33,21.064a.945.945,0,0,1,.946-.945h1.768a.945.945,0,0,1,.945.945v1.768a.945.945,0,0,1-.945.945H40.276a.945.945,0,0,1-.946-.945V21.064Zm0,5.68a.945.945,0,0,1,.946-.945h1.768a.945.945,0,0,1,.945.945v1.768a.945.945,0,0,1-.945.945H40.276a.945.945,0,0,1-.946-.945V26.743Zm-5.679-5.68a.945.945,0,0,1,.945-.945h1.768a.945.945,0,0,1,.945.945v1.768a.945.945,0,0,1-.945.945H34.6a.945.945,0,0,1-.945-.945Zm0,5.68A.945.945,0,0,1,34.6,25.8h1.768a.945.945,0,0,1,.945.945v1.768a.945.945,0,0,1-.945.945H34.6a.945.945,0,0,1-.945-.945Zm-4.851-16a2.678,2.678,0,1,1-2.678,2.677A2.678,2.678,0,0,1,28.8,10.739ZM26.119,26.11a.945.945,0,0,1,.946-.945h3.471a.945.945,0,0,1,.945.945v7.447a.939.939,0,0,1-.125.468H26.244a.939.939,0,0,1-.125-.468V26.11Zm-5.828-5.047a.945.945,0,0,1,.945-.945H23a.945.945,0,0,1,.945.945v1.768a.945.945,0,0,1-.945.945H21.236a.945.945,0,0,1-.945-.945Zm0,5.68a.945.945,0,0,1,.945-.945H23a.945.945,0,0,1,.945.945v1.768a.945.945,0,0,1-.945.945H21.236a.945.945,0,0,1-.945-.945Zm-5.68-5.68a.945.945,0,0,1,.945-.945h1.767a.945.945,0,0,1,.945.945v1.768a.945.945,0,0,1-.945.945H15.556a.945.945,0,0,1-.945-.945V21.064Zm0,5.68a.945.945,0,0,1,.945-.945h1.767a.945.945,0,0,1,.945.945v1.768a.945.945,0,0,1-.945.945H15.556a.945.945,0,0,1-.945-.945V26.743Z" transform="translate(-10.828)" fill="#67b445"/>
    </g>
  </g>
</svg>
